<?xml version="1.0" encoding="UTF-8"?>
<svg version="1.1" xmlns="http://www.w3.org/2000/svg" width="425" height="446">
<path d="M0 0 C2.92322233 2.61149579 5.73721099 5.32918608 8.54296875 8.06640625 C9.23261719 8.69417969 9.92226563 9.32195312 10.6328125 9.96875 C35.61141478 33.31276072 50.15117507 69.78211526 51.65234375 103.52490234 C52.94333823 146.23261364 39.48429728 183.77821923 10.31640625 215.1796875 C9.39446214 216.14435626 8.46981812 217.10644949 7.54296875 218.06640625 C7.00293213 218.62980713 6.46289551 219.19320801 5.90649414 219.77368164 C-19.02667347 245.31471966 -55.37621601 259.41327537 -90.78125 260.234375 C-114.32451797 260.43600719 -135.89096383 256.69368939 -157.45703125 247.06640625 C-158.59269531 246.56625 -159.72835937 246.06609375 -160.8984375 245.55078125 C-175.83944895 238.54771331 -188.70115673 228.54675246 -200.45703125 217.06640625 C-201.09640625 216.47730469 -201.73578125 215.88820313 -202.39453125 215.28125 C-220.7301294 198.0067397 -233.47742943 173.31869993 -239.45703125 149.06640625 C-239.74191406 147.92300781 -240.02679688 146.77960938 -240.3203125 145.6015625 C-248.87152734 106.33081758 -241.308372 66.0128122 -220.22607422 32.08544922 C-199.4877203 0.10371181 -166.25564291 -23.07785206 -129.17675781 -31.66845703 C-83.71567807 -41.25935847 -35.32105445 -30.60058671 0 0 Z " fill="#FDFDFD" transform="translate(308.45703125,111.93359375)"/>
<path d="M0 0 C3.62989693 1.35231454 3.87278268 1.76898318 5.5625 5.0625 C6.4638194 7.092685 7.33333174 9.1370307 8.1875 11.1875 C8.88258116 12.7832209 9.57932864 14.37821656 10.27734375 15.97265625 C11.02013581 17.68928041 11.76100739 19.40673679 12.5 21.125 C12.86206543 21.96595215 13.22413086 22.8069043 13.59716797 23.67333984 C13.93248535 24.47078613 14.26780273 25.26823242 14.61328125 26.08984375 C14.91661377 26.80648193 15.21994629 27.52312012 15.5324707 28.26147461 C16.1875 30.1875 16.1875 30.1875 16.1875 33.1875 C16.8475 33.1875 17.5075 33.1875 18.1875 33.1875 C18.35113037 32.59324219 18.51476074 31.99898437 18.68334961 31.38671875 C20.57980137 24.76169473 23.00441932 18.50278345 25.75 12.1875 C26.34844727 10.77791016 26.34844727 10.77791016 26.95898438 9.33984375 C29.93037887 2.44462113 29.93037887 2.44462113 32.1875 0.1875 C35.5 -0.0625 35.5 -0.0625 39.1875 1.1875 C40.47216797 3.09277344 40.47216797 3.09277344 41.6171875 5.546875 C42.2524939 6.90087402 42.2524939 6.90087402 42.90063477 8.28222656 C45.0138768 13.05315811 47.04133177 17.85112121 49 22.6875 C49.40669922 23.67492187 49.81339844 24.66234375 50.23242188 25.6796875 C53.1875 32.93080357 53.1875 32.93080357 53.1875 35.1875 C49.875 35.5 49.875 35.5 46.1875 35.1875 C45.754375 34.3728125 45.32125 33.558125 44.875 32.71875 C43.38485586 29.85309202 43.38485586 29.85309202 40.05078125 29.48046875 C38.87902344 29.44566406 37.70726562 29.41085938 36.5 29.375 C35.32050781 29.32730469 34.14101562 29.27960938 32.92578125 29.23046875 C31.57033203 29.20919922 31.57033203 29.20919922 30.1875 29.1875 C31.1775 26.8775 32.1675 24.5675 33.1875 22.1875 C35.4975 22.1875 37.8075 22.1875 40.1875 22.1875 C39.89875 21.48882812 39.61 20.79015625 39.3125 20.0703125 C38.94125 19.16023438 38.57 18.25015625 38.1875 17.3125 C37.81625 16.40757812 37.445 15.50265625 37.0625 14.5703125 C36.1875 12.1875 36.1875 12.1875 36.1875 10.1875 C35.5275 10.1875 34.8675 10.1875 34.1875 10.1875 C33.81625 11.363125 33.445 12.53875 33.0625 13.75 C31.54712632 18.28161984 29.86702799 22.73923946 28.125 27.1875 C27.8676709 27.8585376 27.6103418 28.5295752 27.34521484 29.22094727 C25.42126582 34.07061709 25.42126582 34.07061709 23.1875 35.1875 C21.04730579 35.38698548 18.89856865 35.50022265 16.75 35.5625 C15.59628906 35.61148438 14.44257813 35.66046875 13.25390625 35.7109375 C12.24199219 35.53820312 11.23007813 35.36546875 10.1875 35.1875 C9.16796271 33.53271255 8.16797795 31.86572548 7.1875 30.1875 C4.2397993 29.36821284 4.2397993 29.36821284 1 29.375 C-0.63001953 29.30345703 -0.63001953 29.30345703 -2.29296875 29.23046875 C-3.12441406 29.21628906 -3.95585937 29.20210937 -4.8125 29.1875 C-3.9375 23.3125 -3.9375 23.3125 -2.8125 22.1875 C-0.47952567 22.14657063 1.85455225 22.14508277 4.1875 22.1875 C3.89875 21.48882812 3.61 20.79015625 3.3125 20.0703125 C2.94125 19.16023438 2.57 18.25015625 2.1875 17.3125 C1.81625 16.40757812 1.445 15.50265625 1.0625 14.5703125 C0.1875 12.1875 0.1875 12.1875 0.1875 10.1875 C-0.4725 10.1875 -1.1325 10.1875 -1.8125 10.1875 C-2.03292969 11.02667969 -2.03292969 11.02667969 -2.2578125 11.8828125 C-4.40911173 19.57308907 -7.24319916 27.03895597 -10.8125 34.1875 C-13.52129335 35.54189668 -15.82183268 35.25251451 -18.8125 35.1875 C-15.84538162 23.43205958 -10.65874059 11.79734403 -4.8125 1.1875 C-2.8125 0.1875 -2.8125 0.1875 0 0 Z " fill="#304364" transform="translate(157.8125,206.8125)"/>
<path d="M0 0 C0.72822464 0.00565979 1.45644928 0.01131958 2.20674133 0.01715088 C4.53042623 0.03952471 6.85256332 0.08971831 9.17578125 0.140625 C10.75193084 0.16068891 12.32810462 0.17893988 13.90429688 0.1953125 C17.76622049 0.23939217 21.62698855 0.30842275 25.48828125 0.390625 C24.48828125 3.390625 23.48828125 6.390625 22.48828125 9.390625 C23.14828125 9.390625 23.80828125 9.390625 24.48828125 9.390625 C24.48828125 8.730625 24.48828125 8.070625 24.48828125 7.390625 C26.13828125 6.730625 27.78828125 6.070625 29.48828125 5.390625 C29.57535017 8.66129066 29.62869366 11.93165865 29.67578125 15.203125 C29.70091797 16.13189453 29.72605469 17.06066406 29.75195312 18.01757812 C29.76162109 18.91025391 29.77128906 19.80292969 29.78125 20.72265625 C29.79696045 21.54483643 29.8126709 22.3670166 29.82885742 23.21411133 C29.48828125 25.390625 29.48828125 25.390625 28.203125 27.16357422 C25.27873859 29.25610926 21.77027838 28.70646355 18.30078125 28.703125 C11.83266897 28.85487556 7.66912 29.43423213 2.8359375 34.11328125 C1.48828125 35.390625 1.48828125 35.390625 -0.51171875 35.390625 C-0.51171875 33.080625 -0.51171875 30.770625 -0.51171875 28.390625 C-1.41921875 28.473125 -2.32671875 28.555625 -3.26171875 28.640625 C-6.51171875 28.390625 -6.51171875 28.390625 -8.6875 27 C-11.49375613 22.985912 -11.05500391 19.16801934 -10.94921875 14.390625 C-10.95630859 13.48828125 -10.96339844 12.5859375 -10.97070312 11.65625 C-10.90902148 5.2413591 -10.90902148 5.2413591 -9.45410156 2.12597656 C-6.56330358 -0.45670218 -3.6800746 -0.1075608 0 0 Z " fill="#94D4F0" transform="translate(277.51171875,207.609375)"/>
<path d="M0 0 C8 0 8 0 9.9621582 1.3894043 C10.62477661 2.34713745 10.62477661 2.34713745 11.30078125 3.32421875 C11.80287109 4.02353516 12.30496094 4.72285156 12.82226562 5.44335938 C13.31404297 6.18392578 13.80582031 6.92449219 14.3125 7.6875 C14.82361328 8.40873047 15.33472656 9.12996094 15.86132812 9.87304688 C18.41152492 13.5043414 20.71285032 17.18808386 23 21 C23.33 14.07 23.66 7.14 24 0 C26.31 0 28.62 0 31 0 C31 11.22 31 22.44 31 34 C25 34 25 34 22.48828125 31.98828125 C19.57047791 28.48416892 16.84334413 24.89224677 14.1875 21.1875 C11.6196875 17.6296875 11.6196875 17.6296875 9 14 C8.67 20.6 8.34 27.2 8 34 C5.36 34 2.72 34 0 34 C0 22.78 0 11.56 0 0 Z " fill="#2C4062" transform="translate(214,208)"/>
<path d="M0 0 C2.31 0 4.62 0 7 0 C16 16.66666667 16 16.66666667 16 24 C16.66 24 17.32 24 18 24 C18.13921875 22.78763672 18.13921875 22.78763672 18.28125 21.55078125 C19.17021968 17.15907777 20.75431991 13.29931274 22.5 9.1875 C22.82097656 8.41212891 23.14195312 7.63675781 23.47265625 6.83789062 C25.85226739 1.14773261 25.85226739 1.14773261 27 0 C29.33297433 -0.04092937 31.66705225 -0.04241723 34 0 C31.94817514 7.37889158 29.36013389 14.42465139 26.4375 21.5 C26.03853516 22.48742187 25.63957031 23.47484375 25.22851562 24.4921875 C24.84244141 25.43320313 24.45636719 26.37421875 24.05859375 27.34375 C23.71111084 28.19130859 23.36362793 29.03886719 23.00561523 29.91210938 C22 32 22 32 20 34 C17.125 34.5 17.125 34.5 14 34 C10.11080421 29.17771086 8.0834599 23.6769766 5.875 17.9375 C5.52824219 17.05255859 5.18148437 16.16761719 4.82421875 15.25585938 C4.1621841 13.56526132 3.50407446 11.87311905 2.85058594 10.17919922 C2.18100578 8.46373639 1.4758531 6.76215623 0.7578125 5.06640625 C0 3 0 3 0 0 Z " fill="#2E4064" transform="translate(108,208)"/>
<path d="M0 0 C1.77503906 0.03480469 1.77503906 0.03480469 3.5859375 0.0703125 C5.36871094 0.09738281 5.36871094 0.09738281 7.1875 0.125 C8.10273438 0.14820313 9.01796875 0.17140625 9.9609375 0.1953125 C8.9609375 3.1953125 7.9609375 6.1953125 6.9609375 9.1953125 C7.6209375 9.1953125 8.2809375 9.1953125 8.9609375 9.1953125 C8.9609375 8.5353125 8.9609375 7.8753125 8.9609375 7.1953125 C10.6109375 6.5353125 12.2609375 5.8753125 13.9609375 5.1953125 C14.04800642 8.46597816 14.10134991 11.73634615 14.1484375 15.0078125 C14.17357422 15.93658203 14.19871094 16.86535156 14.22460938 17.82226562 C14.23427734 18.71494141 14.24394531 19.60761719 14.25390625 20.52734375 C14.2696167 21.34952393 14.28532715 22.1717041 14.30151367 23.01879883 C13.87898111 25.71906964 13.13092864 26.5787011 10.9609375 28.1953125 C8.18359375 28.59375 8.18359375 28.59375 5.0234375 28.5703125 C3.98316406 28.57804687 2.94289063 28.58578125 1.87109375 28.59375 C-1.45449943 28.13843389 -2.65687208 27.52145138 -5.0390625 25.1953125 C-5.52490234 22.77514648 -5.52490234 22.77514648 -5.5 19.94140625 C-5.49613281 18.92240234 -5.49226563 17.90339844 -5.48828125 16.85351562 C-5.46378906 15.79068359 -5.43929688 14.72785156 -5.4140625 13.6328125 C-5.41277344 12.56611328 -5.41148437 11.49941406 -5.41015625 10.40039062 C-5.29547534 0.34032618 -5.29547534 0.34032618 0 0 Z " fill="#B5D5A2" transform="translate(293.0390625,207.8046875)"/>
<path d="M0 0 C7 0 7 0 9.4375 2.125 C11.20830209 5.38327585 11.33975517 7.34763197 11 11 C10.01 11.495 10.01 11.495 9 12 C8.01 11.67 7.02 11.34 6 11 C6 18.26 6 25.52 6 33 C4.02 33 2.04 33 0 33 C0 22.11 0 11.22 0 0 Z " fill="#253B62" transform="translate(215,208)"/>
<path d="M0 0 C2.31 0 4.62 0 7 0 C7 11.22 7 22.44 7 34 C4.69 34 2.38 34 0 34 C0 22.78 0 11.56 0 0 Z " fill="#2A3E60" transform="translate(252,208)"/>
<path d="M0 0 C4.55555556 0.55555556 4.55555556 0.55555556 6 2 C6.25208722 5.80588144 6.18522344 9.62425456 6.1875 13.4375 C6.19974609 14.51322266 6.21199219 15.58894531 6.22460938 16.69726562 C6.22750977 18.23737305 6.22750977 18.23737305 6.23046875 19.80859375 C6.23457764 20.75532959 6.23868652 21.70206543 6.24291992 22.67749023 C6 25 6 25 4 27 C-0.55555556 26.44444444 -0.55555556 26.44444444 -2 25 C-2.25208722 21.19411856 -2.18522344 17.37574544 -2.1875 13.5625 C-2.19974609 12.48677734 -2.21199219 11.41105469 -2.22460938 10.30273438 C-2.22654297 9.27599609 -2.22847656 8.24925781 -2.23046875 7.19140625 C-2.23457764 6.24467041 -2.23868652 5.29793457 -2.24291992 4.32250977 C-2 2 -2 2 0 0 Z " fill="#6FBFAD" transform="translate(290,208)"/>
<path d="M0 0 C0.556875 0.309375 1.11375 0.61875 1.6875 0.9375 C4.12540433 2.05761821 6.36224186 2.56037364 9 3 C9.33 2.01 9.66 1.02 10 0 C10.33 0 10.66 0 11 0 C11 1.98 11 3.96 11 6 C13.97 6 16.94 6 20 6 C20 6.66 20 7.32 20 8 C19.175 8.391875 18.35 8.78375 17.5 9.1875 C16.675 9.785625 15.85 10.38375 15 11 C14.58274322 14.62599422 14.58274322 14.62599422 15 18 C13.68 17.01 12.36 16.02 11 15 C10.67 20.94 10.34 26.88 10 33 C8.68 33.66 7.36 34.32 6 35 C6.66 34.01 7.32 33.02 8 32 C8.3650791 29.77868577 8.3650791 29.77868577 8.4140625 27.33203125 C8.45273437 26.43935547 8.49140625 25.54667969 8.53125 24.62695312 C8.57765625 23.23379883 8.57765625 23.23379883 8.625 21.8125 C8.66367187 20.87212891 8.70234375 19.93175781 8.7421875 18.96289062 C8.83643187 16.6421229 8.92204025 14.32136252 9 12 C7.35 12.66 5.7 13.32 4 14 C4 14.66 4 15.32 4 16 C2.02 16.99 2.02 16.99 0 18 C1.46552946 14.1670768 3.14624378 10.70751245 5 7 C-5.23 7 -15.46 7 -26 7 C-26 6.67 -26 6.34 -26 6 C-16.43 6 -6.86 6 3 6 C2.01 4.02 1.02 2.04 0 0 Z " fill="#E8F2F0" transform="translate(298,201)"/>
<path d="M0 0 C0.33 0 0.66 0 1 0 C1 10.89 1 21.78 1 33 C2.98 33 4.96 33 7 33 C7 25.74 7 18.48 7 11 C8.32 10.67 9.64 10.34 11 10 C11 9.01 11 8.02 11 7 C15.10088936 8.50607883 16.53509554 10.96188878 18.75 14.625 C19.36359375 15.62789062 19.9771875 16.63078125 20.609375 17.6640625 C21.06828125 18.43492187 21.5271875 19.20578125 22 20 C21.01 20.33 20.02 20.66 19 21 C18.67 20.34 18.34 19.68 18 19 C17.01 19.99 16.02 20.98 15 22 C13.02 19.36 11.04 16.72 9 14 C8.67 20.6 8.34 27.2 8 34 C5.36 34 2.72 34 0 34 C0 22.78 0 11.56 0 0 Z " fill="#4C5976" transform="translate(214,208)"/>
<path d="M0 0 C0.66 0 1.32 0 2 0 C2.6708712 1.6232687 3.33657029 3.24867578 4 4.875 C4.556875 6.23238281 4.556875 6.23238281 5.125 7.6171875 C6 10 6 10 6 12 C3.69 12.33 1.38 12.66 -1 13 C-1.2475 13.804375 -1.495 14.60875 -1.75 15.4375 C-2.36875 16.7059375 -2.36875 16.7059375 -3 18 C-5.078125 18.66015625 -5.078125 18.66015625 -7 19 C-5.17778624 12.38757278 -2.94776396 6.19479329 0 0 Z " fill="#E2E8F1" transform="translate(192,217)"/>
<path d="M0 0 C0.66 0 1.32 0 2 0 C2.6708712 1.6232687 3.33657029 3.24867578 4 4.875 C4.556875 6.23238281 4.556875 6.23238281 5.125 7.6171875 C6 10 6 10 6 12 C3.69 12.33 1.38 12.66 -1 13 C-1.66 14.98 -2.32 16.96 -3 19 C-3.99 19 -4.98 19 -6 19 C-7 17 -7 17 -6.47094727 15.21240234 C-6.17244873 14.51066895 -5.8739502 13.80893555 -5.56640625 13.0859375 C-5.24736328 12.32539063 -4.92832031 11.56484375 -4.59960938 10.78125 C-4.25736328 9.9871875 -3.91511719 9.193125 -3.5625 8.375 C-3.22412109 7.57320312 -2.88574219 6.77140625 -2.53710938 5.9453125 C-1.69833222 3.96060036 -0.85004755 1.97991125 0 0 Z " fill="#E5EBF3" transform="translate(156,217)"/>
<path d="M0 0 C2.61943903 2.61943903 3.44197838 5.57473973 4.625 9 C4.85445313 9.64195312 5.08390625 10.28390625 5.3203125 10.9453125 C7 15.72442336 7 15.72442336 7 18 C7.66 18 8.32 18 9 18 C9.33 17.01 9.66 16.02 10 15 C10.33 15.99 10.66 16.98 11 18 C6.25 20 6.25 20 4 20 C3.34 21.32 2.68 22.64 2 24 C-1 17.375 -1 17.375 -1 14 C-0.34 14 0.32 14 1 14 C0.835 13.360625 0.67 12.72125 0.5 12.0625 C-0.15932515 8.02413348 -0.08003779 4.08192742 0 0 Z " fill="#314366" transform="translate(117,214)"/>
<path d="M0 0 C1.32 0 2.64 0 4 0 C4.33 0.99 4.66 1.98 5 3 C5.66 3 6.32 3 7 3 C6.979375 3.928125 6.95875 4.85625 6.9375 5.8125 C6.84230396 9.02286011 6.84230396 9.02286011 8 12 C5.525 11.01 5.525 11.01 3 10 C3 9.34 3 8.68 3 8 C2.34 8 1.68 8 1 8 C1 8.66 1 9.32 1 10 C-1.16874252 9.49396008 -2.99967627 9.00016187 -5 8 C-5 7.34 -5 6.68 -5 6 C-4.34 5.67 -3.68 5.34 -3 5 C-2.54625 4.154375 -2.0925 3.30875 -1.625 2.4375 C-1.08875 1.633125 -0.5525 0.82875 0 0 Z " fill="#263B62" transform="translate(155,209)"/>
<path d="M0 0 C3.3 0 6.6 0 10 0 C9.08238314 3.03519424 8.24379713 5.63679204 6.46875 8.28125 C4.68676347 11.57982081 4.50076906 14.08477256 4.3125 17.8125 C4.24675781 18.97394531 4.18101562 20.13539063 4.11328125 21.33203125 C4.07589844 22.21246094 4.03851563 23.09289062 4 24 C4.66 24.33 5.32 24.66 6 25 C5.34 25.66 4.68 26.32 4 27 C3.01 26.67 2.02 26.34 1 26 C1.33 25.67 1.66 25.34 2 25 C2.25208722 21.19411856 2.18522344 17.37574544 2.1875 13.5625 C2.19974609 12.48677734 2.21199219 11.41105469 2.22460938 10.30273438 C2.22654297 9.27599609 2.22847656 8.24925781 2.23046875 7.19140625 C2.23457764 6.24467041 2.23868652 5.29793457 2.24291992 4.32250977 C2.22616506 1.80635656 2.22616506 1.80635656 0 0 Z " fill="#A0D2A8" transform="translate(293,208)"/>
<path d="M0 0 C0.33 0 0.66 0 1 0 C1.66 7.59 2.32 15.18 3 23 C4.98 23.33 6.96 23.66 9 24 C9 24.66 9 25.32 9 26 C5.68783052 26.30110632 3.67001339 26.42430186 0.81640625 24.6171875 C-1.99319477 20.56894517 -1.46530668 16.67652538 -1.3125 11.875 C-1.30283203 10.95589844 -1.29316406 10.03679687 -1.28320312 9.08984375 C-1.16919168 2.33838336 -1.16919168 2.33838336 0 0 Z " fill="#ADD8E8" transform="translate(268,210)"/>
<path d="M0 0 C0.99 0.33 1.98 0.66 3 1 C2.34 1 1.68 1 1 1 C0.80664062 1.61488281 0.61328125 2.22976562 0.4140625 2.86328125 C0.15367187 3.67152344 -0.10671875 4.47976562 -0.375 5.3125 C-0.63023437 6.11300781 -0.88546875 6.91351563 -1.1484375 7.73828125 C-2 10 -2 10 -4 13 C-4.99 12.34 -5.98 11.68 -7 11 C-8.32 11.99 -9.64 12.98 -11 14 C-10.54738642 12.56068883 -10.08767021 11.12361001 -9.625 9.6875 C-9.36976563 8.88699219 -9.11453125 8.08648437 -8.8515625 7.26171875 C-8 5 -8 5 -6 2 C-5.67 3.65 -5.34 5.3 -5 7 C-4.01 7 -3.02 7 -2 7 C-1.855625 6.21625 -1.71125 5.4325 -1.5625 4.625 C-1 2 -1 2 0 0 Z " fill="#364868" transform="translate(191,216)"/>
<path d="M0 0 C0.99 0.33 1.98 0.66 3 1 C2.67 3.31 2.34 5.62 2 8 C1.2575 7.9175 0.515 7.835 -0.25 7.75 C-3.78157027 8.07105184 -4.76630364 9.35265617 -7 12 C-5.59272097 4.56152513 -5.59272097 4.56152513 -2.625 1.75 C-1.75875 1.1725 -0.8925 0.595 0 0 Z " fill="#334463" transform="translate(184,226)"/>
<path d="M0 0 C2.31 0 4.62 0 7 0 C9.4375 3 9.4375 3 11 6 C10.01 6 9.02 6 8 6 C8 5.34 8 4.68 8 4 C7.34 4 6.68 4 6 4 C5.67 4.66 5.34 5.32 5 6 C4.34 5.67 3.68 5.34 3 5 C3 3.68 3 2.36 3 1 C2.34 1 1.68 1 1 1 C1 5.95 1 10.9 1 16 C0.67 16 0.34 16 0 16 C0 10.72 0 5.44 0 0 Z M7 6 C7.99 6.495 7.99 6.495 9 7 C8.67 7.66 8.34 8.32 8 9 C7.67 8.01 7.34 7.02 7 6 Z " fill="#29395E" transform="translate(215,208)"/>
<path d="M0 0 C3 0.9375 3 0.9375 4.875 3.3125 C6 5.9375 6 5.9375 6 8.9375 C5.34 8.9375 4.68 8.9375 4 8.9375 C4 7.6175 4 6.2975 4 4.9375 C3.01 5.2675 2.02 5.5975 1 5.9375 C1 4.6175 1 3.2975 1 1.9375 C-2.81413002 3.1053266 -2.81413002 3.1053266 -5.3125 6.0625 C-5.539375 6.68125 -5.76625 7.3 -6 7.9375 C-6.66 7.9375 -7.32 7.9375 -8 7.9375 C-5.7230977 -0.1192312 -5.7230977 -0.1192312 0 0 Z " fill="#404E6C" transform="translate(158,207.0625)"/>
<path d="M0 0 C3.16115776 1.36983503 3.9927092 1.9890638 6 5 C4 7 4 7 1.01904297 7.22705078 C-0.22731934 7.21657715 -1.47368164 7.20610352 -2.7578125 7.1953125 C-3.42086395 7.1924826 -4.08391541 7.18965271 -4.76705933 7.18673706 C-6.88655583 7.17553435 -9.00563104 7.15043051 -11.125 7.125 C-12.56119182 7.11497028 -13.99739025 7.10584441 -15.43359375 7.09765625 C-18.95586628 7.075595 -22.47789203 7.04106494 -26 7 C-26 6.67 -26 6.34 -26 6 C-16.43 6 -6.86 6 3 6 C2.01 4.02 1.02 2.04 0 0 Z " fill="#D0E7E8" transform="translate(298,201)"/>
<path d="M0 0 C1.32 0 2.64 0 4 0 C4.66 1.98 5.32 3.96 6 6 C4.68 5.01 3.36 4.02 2 3 C1.67 8.94 1.34 14.88 1 21 C-0.98 21.99 -0.98 21.99 -3 23 C-2.01 21.515 -2.01 21.515 -1 20 C-0.6349209 17.77868577 -0.6349209 17.77868577 -0.5859375 15.33203125 C-0.54726563 14.43935547 -0.50859375 13.54667969 -0.46875 12.62695312 C-0.4378125 11.69818359 -0.406875 10.76941406 -0.375 9.8125 C-0.33632813 8.87212891 -0.29765625 7.93175781 -0.2578125 6.96289062 C-0.16356813 4.6421229 -0.07795975 2.32136252 0 0 Z " fill="#E0EED9" transform="translate(307,213)"/>
<path d="M0 0 C1.134375 0.020625 2.26875 0.04125 3.4375 0.0625 C1.4575 1.0525 1.4575 1.0525 -0.5625 2.0625 C-0.5625 3.3825 -0.5625 4.7025 -0.5625 6.0625 C1.7475 6.0625 4.0575 6.0625 6.4375 6.0625 C6.4375 6.3925 6.4375 6.7225 6.4375 7.0625 C2.4775 7.0625 -1.4825 7.0625 -5.5625 7.0625 C-4.52245509 0.07934132 -4.52245509 0.07934132 0 0 Z " fill="#3E4C6A" transform="translate(158.5625,228.9375)"/>
<path d="M0 0 C0.99 0.33 1.98 0.66 3 1 C3.33 2.98 3.66 4.96 4 7 C4.99 7.33 5.98 7.66 7 8 C5.515 10.475 5.515 10.475 4 13 C3.01 12.67 2.02 12.34 1 12 C0.67 8.04 0.34 4.08 0 0 Z " fill="#25395F" transform="translate(195,212)"/>
<path d="M0 0 C1.98 0 3.96 0 6 0 C4.94124926 3.40312738 3.99097846 6.01353231 2 9 C1.34 9 0.68 9 0 9 C0 6.03 0 3.06 0 0 Z " fill="#B5D4AD" transform="translate(297,208)"/>
<path d="M0 0 C0.33 0.66 0.66 1.32 1 2 C0.01 2.66 -0.98 3.32 -2 4 C-1.01 4.66 -0.02 5.32 1 6 C-1.97 6 -4.94 6 -8 6 C-8 4.35 -8 2.7 -8 1 C-5.36 0.67 -2.72 0.34 0 0 Z " fill="#253860" transform="translate(199,229)"/>
<path d="M0 0 C0.66 0.33 1.32 0.66 2 1 C2 8.59 2 16.18 2 24 C1.01 24.33 0.02 24.66 -1 25 C-0.9278125 24.45214844 -0.855625 23.90429688 -0.78125 23.33984375 C0.13188961 15.54010957 0.09410386 7.84198809 0 0 Z " fill="#7BBE9F" transform="translate(294,209)"/>
<path d="M0 0 C0 3.63 0 7.26 0 11 C-0.99 11 -1.98 11 -3 11 C-3.66 8.69 -4.32 6.38 -5 4 C-1.125 0 -1.125 0 0 0 Z " fill="#283C5F" transform="translate(118,217)"/>
<path d="M0 0 C2.05123248 2.05123248 2.64147118 3.27005063 3.625 5.9375 C3.88539062 6.62714844 4.14578125 7.31679687 4.4140625 8.02734375 C5 10 5 10 5 13 C3.0625 12.6875 3.0625 12.6875 1 12 C0.03929566 9.11788698 -0.10581883 7.30149956 -0.0625 4.3125 C-0.05347656 3.50425781 -0.04445313 2.69601563 -0.03515625 1.86328125 C-0.02355469 1.24839844 -0.01195313 0.63351563 0 0 Z " fill="#3B4C6D" transform="translate(117,214)"/>
<path d="M0 0 C0.33 0 0.66 0 1 0 C0.9071875 1.670625 0.9071875 1.670625 0.8125 3.375 C0.874375 4.57125 0.93625 5.7675 1 7 C1.99 7.66 2.98 8.32 4 9 C3 10 3 10 -0.0625 10.0625 C-1.031875 10.041875 -2.00125 10.02125 -3 10 C-2.01 6.7 -1.02 3.4 0 0 Z " fill="#46556E" transform="translate(142,232)"/>
<path d="M0 0 C1.65 1.65 3.3 3.3 5 5 C4.01 5.66 3.02 6.32 2 7 C1.67 6.34 1.34 5.68 1 5 C0.01 5.99 -0.98 6.98 -2 8 C-2.33 6.68 -2.66 5.36 -3 4 C-2.34 3.67 -1.68 3.34 -1 3 C-0.67 2.01 -0.34 1.02 0 0 Z " fill="#374867" transform="translate(231,222)"/>
<path d="M0 0 C0.66 0.99 1.32 1.98 2 3 C1.01 3.495 1.01 3.495 0 4 C0 4.99 0 5.98 0 7 C-2 8.6875 -2 8.6875 -4 10 C-4.25 7.25 -4.25 7.25 -4 4 C-2 1.625 -2 1.625 0 0 Z " fill="#263C5E" transform="translate(150,219)"/>
<path d="M0 0 C0.33 0 0.66 0 1 0 C1.36666667 7.33333333 1.36666667 7.33333333 -0.375 10.5 C-2 12 -2 12 -4 12 C-2.66666667 8 -1.33333333 4 0 0 Z " fill="#354767" transform="translate(133,211)"/>
<path d="M0 0 C2 2 2 2 2.125 5.125 C2.08375 6.07375 2.0425 7.0225 2 8 C0.68 7.67 -0.64 7.34 -2 7 C-2.66 8.32 -3.32 9.64 -4 11 C-4.75 9.25 -4.75 9.25 -5 7 C-3.125 4.9375 -3.125 4.9375 -1 3 C-0.67 2.01 -0.34 1.02 0 0 Z " fill="#22395F" transform="translate(134,216)"/>
<path d="M0 0 C0.99 0.33 1.98 0.66 3 1 C3 1.66 3 2.32 3 3 C2.34 3 1.68 3 1 3 C0.67 4.32 0.34 5.64 0 7 C-1.32 6.67 -2.64 6.34 -4 6 C-2.84826645 3.53199953 -1.95216435 1.95216435 0 0 Z " fill="#213A5D" transform="translate(184,226)"/>
<path d="M0 0 C2.62187494 1.04874998 3.79371361 1.64931313 5.25 4.125 C5.4975 4.74375 5.745 5.3625 6 6 C5.01 6 4.02 6 3 6 C3 5.34 3 4.68 3 4 C2.34 4 1.68 4 1 4 C0.67 4.66 0.34 5.32 0 6 C-1 3 -1 3 0 0 Z M2 6 C2.99 6.495 2.99 6.495 4 7 C3.67 7.66 3.34 8.32 3 9 C2.67 8.01 2.34 7.02 2 6 Z " fill="#364868" transform="translate(220,208)"/>
<path d="M0 0 C0.33 0.66 0.66 1.32 1 2 C5.29 2 9.58 2 14 2 C14 2.33 14 2.66 14 3 C13.10796875 3.06058594 12.2159375 3.12117187 11.296875 3.18359375 C9.54117188 3.30927734 9.54117188 3.30927734 7.75 3.4375 C6.00976562 3.55931641 6.00976562 3.55931641 4.234375 3.68359375 C1.69022624 3.93247787 -0.55953248 4.28114942 -3 5 C-1.125 1.125 -1.125 1.125 0 0 Z " fill="#EEF7FB" transform="translate(187,234)"/>
<path d="M0 0 C0.33 0.99 0.66 1.98 1 3 C-0.11328125 4.48828125 -0.11328125 4.48828125 -2 6 C-4.91796875 6.29296875 -4.91796875 6.29296875 -8.1875 6.1875 C-9.27417969 6.16042969 -10.36085938 6.13335937 -11.48046875 6.10546875 C-12.31191406 6.07066406 -13.14335937 6.03585938 -14 6 C-14 5.67 -14 5.34 -14 5 C-13.32453125 4.97421875 -12.6490625 4.9484375 -11.953125 4.921875 C-6.24236068 4.65678272 -6.24236068 4.65678272 -1.375 1.9375 C-0.92125 1.298125 -0.4675 0.65875 0 0 Z " fill="#BED5B6" transform="translate(306,230)"/>
<path d="M0 0 C0.33 0.99 0.66 1.98 1 3 C2.98 2.67 4.96 2.34 7 2 C6.34 3.32 5.68 4.64 5 6 C4.401875 5.814375 3.80375 5.62875 3.1875 5.4375 C0.83591238 4.77906313 0.83591238 4.77906313 -2 6 C-1.34 4.02 -0.68 2.04 0 0 Z " fill="#394B6B" transform="translate(145,226)"/>
<path d="M0 0 C1.0625 1.875 1.0625 1.875 2 4 C1.67 4.66 1.34 5.32 1 6 C0.34 6 -0.32 6 -1 6 C-1 6.66 -1 7.32 -1 8 C-2.98 8.99 -2.98 8.99 -5 10 C-3.66511872 6.40608886 -2.03977277 3.24509304 0 0 Z " fill="#EBF9E1" transform="translate(303,209)"/>
<path d="M0 0 C0.33 0.66 0.66 1.32 1 2 C3.64 2 6.28 2 9 2 C9 2.33 9 2.66 9 3 C2.78675502 3.73030908 -2.84098757 4.23180249 -9 3 C-9 2.67 -9 2.34 -9 2 C-6.03 1.34 -3.06 0.68 0 0 Z " fill="#EBF2FB" transform="translate(213,240)"/>
<path d="M0 0 C0.99 0.33 1.98 0.66 3 1 C3 2.65 3 4.3 3 6 C1.68 6.33 0.36 6.66 -1 7 C-1.04254356 5.00045254 -1.04080783 2.99958364 -1 1 C-0.67 0.67 -0.34 0.34 0 0 Z " fill="#253A63" transform="translate(186,217)"/>
<path d="M0 0 C2 3 2 3 1.625 6.1875 C1.41875 7.115625 1.2125 8.04375 1 9 C0.01 9 -0.98 9 -2 9 C-2.33 8.34 -2.66 7.68 -3 7 C-2.06421005 4.64018187 -1.06652192 2.30368736 0 0 Z " fill="#D7E4E9" transform="translate(152,227)"/>
<path d="M0 0 C1.98 0 3.96 0 6 0 C6.33 0.99 6.66 1.98 7 3 C6.67 3.66 6.34 4.32 6 5 C4.68 5 3.36 5 2 5 C2 3.68 2 2.36 2 1 C1.34 0.67 0.68 0.34 0 0 Z " fill="#22395D" transform="translate(156,230)"/>
<path d="M0 0 C1.98 0 3.96 0 6 0 C6.33 0.99 6.66 1.98 7 3 C6.01 3.495 6.01 3.495 5 4 C4.01 5.485 4.01 5.485 3 7 C2.67 5.35 2.34 3.7 2 2 C1.34 2 0.68 2 0 2 C0 1.34 0 0.68 0 0 Z " fill="#27385A" transform="translate(108,208)"/>
<path d="M0 0 C0.33 0.66 0.66 1.32 1 2 C2.65 1.67 4.3 1.34 6 1 C5.01 2.98 4.02 4.96 3 7 C2.67 6.34 2.34 5.68 2 5 C1.01 5 0.02 5 -1 5 C-0.67 3.35 -0.34 1.7 0 0 Z " fill="#ECF8E6" transform="translate(309,208)"/>
<path d="M0 0 C0.66 0.66 1.32 1.32 2 2 C3.31747324 2.69748583 4.64914193 3.36959957 6 4 C2.25 7 2.25 7 0 7 C0 4.69 0 2.38 0 0 Z " fill="#B0D5E5" transform="translate(277,236)"/>
<path d="M0 0 C1.99097846 2.98646769 2.94124926 5.59687262 4 9 C3.01 8.67 2.02 8.34 1 8 C0.67 8.66 0.34 9.32 0 10 C0 6.7 0 3.4 0 0 Z " fill="#3D4E6E" transform="translate(198,211)"/>
<path d="M0 0 C2.64 0 5.28 0 8 0 C8 0.66 8 1.32 8 2 C5.36 2.33 2.72 2.66 0 3 C0 2.01 0 1.02 0 0 Z " fill="#D8E0D2" transform="translate(310,207)"/>
<path d="M0 0 C0.66 1.32 1.32 2.64 2 4 C2.66 4 3.32 4 4 4 C4.33 3.34 4.66 2.68 5 2 C4.67 3.98 4.34 5.96 4 8 C3.34 8 2.68 8 2 8 C0.74335022 5.09399739 0 3.20395416 0 0 Z " fill="#DDE8F1" transform="translate(122,224)"/>
<path d="M0 0 C0.66 0.33 1.32 0.66 2 1 C1.25 3.875 1.25 3.875 0 7 C-1.98 7.99 -1.98 7.99 -4 9 C-2.68 6.03 -1.36 3.06 0 0 Z " fill="#DEE6ED" transform="translate(132,233)"/>
<path d="M0 0 C2.62187494 1.04874998 3.79371361 1.64931313 5.25 4.125 C5.4975 4.74375 5.745 5.3625 6 6 C4.68 5.67 3.36 5.34 2 5 C2 4.34 2 3.68 2 3 C1.34 3 0.68 3 0 3 C0 2.01 0 1.02 0 0 Z " fill="#384765" transform="translate(225,215)"/>
<path d="" fill="#000000" transform="translate(0,0)"/>
<path d="" fill="#000000" transform="translate(0,0)"/>
<path d="" fill="#000000" transform="translate(0,0)"/>
<path d="" fill="#000000" transform="translate(0,0)"/>
<path d="" fill="#000000" transform="translate(0,0)"/>
<path d="" fill="#000000" transform="translate(0,0)"/>
<path d="" fill="#000000" transform="translate(0,0)"/>
<path d="" fill="#000000" transform="translate(0,0)"/>
<path d="" fill="#000000" transform="translate(0,0)"/>
<path d="" fill="#000000" transform="translate(0,0)"/>
<path d="" fill="#000000" transform="translate(0,0)"/>
<path d="" fill="#000000" transform="translate(0,0)"/>
<path d="" fill="#000000" transform="translate(0,0)"/>
<path d="" fill="#000000" transform="translate(0,0)"/>
<path d="" fill="#000000" transform="translate(0,0)"/>
<path d="" fill="#000000" transform="translate(0,0)"/>
<path d="" fill="#000000" transform="translate(0,0)"/>
<path d="" fill="#000000" transform="translate(0,0)"/>
<path d="" fill="#000000" transform="translate(0,0)"/>
<path d="" fill="#000000" transform="translate(0,0)"/>
<path d="" fill="#000000" transform="translate(0,0)"/>
<path d="" fill="#000000" transform="translate(0,0)"/>
<path d="" fill="#000000" transform="translate(0,0)"/>
<path d="" fill="#000000" transform="translate(0,0)"/>
<path d="" fill="#000000" transform="translate(0,0)"/>
<path d="" fill="#000000" transform="translate(0,0)"/>
<path d="" fill="#000000" transform="translate(0,0)"/>
<path d="" fill="#000000" transform="translate(0,0)"/>
<path d="" fill="#000000" transform="translate(0,0)"/>
<path d="" fill="#000000" transform="translate(0,0)"/>
<path d="" fill="#000000" transform="translate(0,0)"/>
<path d="" fill="#000000" transform="translate(0,0)"/>
<path d="" fill="#000000" transform="translate(0,0)"/>
<path d="" fill="#000000" transform="translate(0,0)"/>
<path d="" fill="#000000" transform="translate(0,0)"/>
<path d="" fill="#000000" transform="translate(0,0)"/>
<path d="" fill="#000000" transform="translate(0,0)"/>
<path d="" fill="#000000" transform="translate(0,0)"/>
<path d="" fill="#000000" transform="translate(0,0)"/>
<path d="" fill="#000000" transform="translate(0,0)"/>
<path d="" fill="#000000" transform="translate(0,0)"/>
<path d="" fill="#000000" transform="translate(0,0)"/>
<path d="" fill="#000000" transform="translate(0,0)"/>
</svg>
